<svg width="133" height="50" viewBox="0 0 133 50" fill="none" xmlns="http://www.w3.org/2000/svg">
<path d="M7.524 18.94V25.24H15.984V29.236H7.524V35.896H17.064V40H2.484V14.836H17.064V18.94H7.524ZM32.6602 40L28.5562 33.808L24.9202 40H19.5202L26.0362 29.992L19.4482 20.056H25.1362L29.2042 26.212L32.8762 20.056H38.2762L31.7242 29.992L38.3482 40H32.6602ZM46.1256 22.936C46.7736 22.024 47.6616 21.268 48.7896 20.668C49.9416 20.044 51.2496 19.732 52.7136 19.732C54.4176 19.732 55.9536 20.152 57.3216 20.992C58.7136 21.832 59.8056 23.032 60.5976 24.592C61.4136 26.128 61.8216 27.916 61.8216 29.956C61.8216 31.996 61.4136 33.808 60.5976 35.392C59.8056 36.952 58.7136 38.164 57.3216 39.028C55.9536 39.892 54.4176 40.324 52.7136 40.324C51.2496 40.324 49.9536 40.024 48.8256 39.424C47.7216 38.824 46.8216 38.068 46.1256 37.156V49.504H41.0856V20.056H46.1256V22.936ZM56.6736 29.956C56.6736 28.756 56.4216 27.724 55.9176 26.86C55.4376 25.972 54.7896 25.3 53.9736 24.844C53.1816 24.388 52.3176 24.16 51.3816 24.16C50.4696 24.16 49.6056 24.4 48.7896 24.88C47.9976 25.336 47.3496 26.008 46.8456 26.896C46.3656 27.784 46.1256 28.828 46.1256 30.028C46.1256 31.228 46.3656 32.272 46.8456 33.16C47.3496 34.048 47.9976 34.732 48.7896 35.212C49.6056 35.668 50.4696 35.896 51.3816 35.896C52.3176 35.896 53.1816 35.656 53.9736 35.176C54.7896 34.696 55.4376 34.012 55.9176 33.124C56.4216 32.236 56.6736 31.18 56.6736 29.956ZM70.524 13.36V40H65.484V13.36H70.524ZM84.3595 40.324C82.4395 40.324 80.7115 39.904 79.1755 39.064C77.6395 38.2 76.4275 36.988 75.5395 35.428C74.6755 33.868 74.2435 32.068 74.2435 30.028C74.2435 27.988 74.6875 26.188 75.5755 24.628C76.4875 23.068 77.7235 21.868 79.2835 21.028C80.8435 20.164 82.5835 19.732 84.5035 19.732C86.4235 19.732 88.1635 20.164 89.7235 21.028C91.2835 21.868 92.5075 23.068 93.3955 24.628C94.3075 26.188 94.7635 27.988 94.7635 30.028C94.7635 32.068 94.2955 33.868 93.3595 35.428C92.4475 36.988 91.1995 38.2 89.6155 39.064C88.0555 39.904 86.3035 40.324 84.3595 40.324ZM84.3595 35.932C85.2715 35.932 86.1235 35.716 86.9155 35.284C87.7315 34.828 88.3795 34.156 88.8595 33.268C89.3395 32.38 89.5795 31.3 89.5795 30.028C89.5795 28.132 89.0755 26.68 88.0675 25.672C87.0835 24.64 85.8715 24.124 84.4315 24.124C82.9915 24.124 81.7795 24.64 80.7955 25.672C79.8355 26.68 79.3555 28.132 79.3555 30.028C79.3555 31.924 79.8235 33.388 80.7595 34.42C81.7195 35.428 82.9195 35.932 84.3595 35.932ZM103.501 23.152C104.149 22.096 104.989 21.268 106.021 20.668C107.077 20.068 108.277 19.768 109.621 19.768V25.06H108.289C106.705 25.06 105.505 25.432 104.689 26.176C103.897 26.92 103.501 28.216 103.501 30.064V40H98.4606V20.056H103.501V23.152ZM131.555 29.596C131.555 30.316 131.507 30.964 131.411 31.54H116.831C116.951 32.98 117.455 34.108 118.343 34.924C119.231 35.74 120.323 36.148 121.619 36.148C123.491 36.148 124.823 35.344 125.615 33.736H131.051C130.475 35.656 129.371 37.24 127.739 38.488C126.107 39.712 124.103 40.324 121.727 40.324C119.807 40.324 118.079 39.904 116.543 39.064C115.031 38.2 113.843 36.988 112.979 35.428C112.139 33.868 111.719 32.068 111.719 30.028C111.719 27.964 112.139 26.152 112.979 24.592C113.819 23.032 114.995 21.832 116.507 20.992C118.019 20.152 119.759 19.732 121.727 19.732C123.623 19.732 125.315 20.14 126.803 20.956C128.315 21.772 129.479 22.936 130.295 24.448C131.135 25.936 131.555 27.652 131.555 29.596ZM126.335 28.156C126.311 26.86 125.843 25.828 124.931 25.06C124.019 24.268 122.903 23.872 121.583 23.872C120.335 23.872 119.279 24.256 118.415 25.024C117.575 25.768 117.059 26.812 116.867 28.156H126.335Z" fill="white"/>
</svg>
