<?xml version="1.0" standalone="no"?>
<!DOCTYPE svg PUBLIC "-//W3C//DTD SVG 20010904//EN"
 "http://www.w3.org/TR/2001/REC-SVG-20010904/DTD/svg10.dtd">
<svg version="1.0" xmlns="http://www.w3.org/2000/svg"
 width="30.000000pt" height="30.000000pt" viewBox="0 0 30.000000 30.000000"
 preserveAspectRatio="xMidYMid meet">

<g transform="translate(0.000000,30.000000) scale(0.100000,-0.100000)"
fill="#000000" stroke="none">
<path d="M90 241 c0 -5 -10 -12 -22 -14 -16 -3 -13 -5 10 -6 18 0 40 6 48 14
14 13 13 15 -10 15 -14 0 -26 -4 -26 -9z"/>
<path d="M7 193 c-4 -3 -7 -27 -7 -52 0 -37 5 -50 27 -68 31 -27 36 -28 53 -8
17 21 127 21 150 0 20 -18 40 -13 58 16 17 26 7 56 -21 65 -12 4 -36 17 -53
30 -27 21 -42 24 -116 24 -46 0 -88 -3 -91 -7z m22 -35 c1 21 5 23 49 20 38
-2 47 -6 46 -20 -1 -11 5 -18 17 -18 12 0 19 7 19 19 0 29 26 32 51 5 12 -13
29 -24 36 -24 17 0 43 -24 43 -40 0 -7 -6 -5 -16 4 -19 20 -28 20 -44 1 -17
-21 -127 -21 -150 0 -17 15 -50 11 -50 -6 0 -5 -4 -9 -8 -9 -5 0 -9 24 -9 53
-1 43 0 47 7 22 6 -25 8 -26 9 -7z m46 -74 c0 -22 -30 -26 -31 -4 -1 22 6 32
19 27 7 -2 12 -12 12 -23z m191 3 c3 -21 -14 -33 -28 -19 -13 13 -2 45 14 40
6 -2 12 -12 14 -21z"/>
<path d="M192 160 c7 -11 17 -20 22 -20 5 0 1 9 -9 20 -10 11 -20 20 -22 20
-2 0 2 -9 9 -20z"/>
<path d="M118 113 c17 -2 47 -2 65 0 17 2 3 4 -33 4 -36 0 -50 -2 -32 -4z"/>
<path d="M53 85 c0 -8 4 -15 9 -15 4 0 8 7 8 15 0 8 -4 15 -8 15 -5 0 -9 -7
-9 -15z"/>
<path d="M240 85 c0 -8 4 -15 8 -15 5 0 9 7 9 15 0 8 -4 15 -9 15 -4 0 -8 -7
-8 -15z"/>
</g>
</svg>
