<?xml version="1.0" standalone="no"?>
<!DOCTYPE svg PUBLIC "-//W3C//DTD SVG 20010904//EN"
 "http://www.w3.org/TR/2001/REC-SVG-20010904/DTD/svg10.dtd">
<svg version="1.0" xmlns="http://www.w3.org/2000/svg"
 width="28.000000pt" height="28.000000pt" viewBox="0 0 28.000000 28.000000"
 preserveAspectRatio="xMidYMid meet">

<g transform="translate(0.000000,28.000000) scale(0.100000,-0.100000)"
fill="#000000" stroke="none">
<path d="M50 273 c-26 -5 -50 -21 -50 -33 0 -4 25 -24 56 -44 52 -35 55 -39
40 -55 -9 -10 -16 -21 -16 -25 0 -4 16 11 35 33 38 47 112 111 126 111 13 0
22 -27 14 -40 -5 -8 -12 -5 -22 7 -14 17 -14 17 -5 -2 14 -26 -10 -59 -92
-125 -46 -38 -63 -57 -58 -69 6 -17 6 -17 -46 36 -16 15 -16 16 0 11 9 -4 22
0 29 8 12 15 13 15 -33 0 -15 -4 -16 -9 -7 -29 20 -45 68 -58 70 -19 0 9 16
30 34 45 l34 28 37 -55 c20 -31 40 -56 44 -56 27 0 47 82 25 100 -9 8 -13 21
-9 36 4 15 2 24 -5 24 -16 0 -14 31 4 50 8 9 16 27 17 41 2 19 -1 23 -17 21
-11 -2 -32 -12 -47 -22 -24 -18 -28 -18 -42 -4 -9 9 -24 13 -35 9 -10 -3 -24
1 -31 10 -7 8 -15 14 -19 14 -3 -1 -17 -4 -31 -6z m16 -22 c-4 -5 3 -7 13 -4
10 3 28 0 40 -6 15 -8 21 -8 21 -1 0 7 5 6 14 -2 12 -11 10 -17 -12 -40 -31
-33 -30 -33 -62 -7 l-25 21 27 -16 c39 -23 49 -20 13 4 -16 11 -35 18 -42 15
-7 -2 -15 1 -19 7 -5 7 -2 8 6 3 9 -6 11 -4 6 4 -5 7 -14 10 -22 7 -8 -3 -11
0 -7 10 3 7 16 14 30 14 13 0 22 -4 19 -9z m173 -109 c-5 -2 -4 -13 2 -24 6
-11 9 -29 6 -39 -3 -10 -1 -19 4 -19 15 0 10 -38 -7 -44 -9 -3 -12 -2 -9 4 6
10 -31 80 -42 80 -2 0 5 -16 17 -35 30 -49 19 -44 -15 6 l-27 41 27 28 c21 22
30 26 40 17 7 -7 9 -13 4 -15z"/>
</g>
</svg>
