<?xml version="1.0" standalone="no"?>
<!DOCTYPE svg PUBLIC "-//W3C//DTD SVG 20010904//EN"
 "http://www.w3.org/TR/2001/REC-SVG-20010904/DTD/svg10.dtd">
<svg version="1.0" xmlns="http://www.w3.org/2000/svg"
 width="30.000000pt" height="30.000000pt" viewBox="0 0 30.000000 30.000000"
 preserveAspectRatio="xMidYMid meet">

<g transform="translate(0.000000,30.000000) scale(0.100000,-0.100000)"
fill="#000000" stroke="none">
<path d="M130 275 c0 -14 -4 -25 -10 -25 -22 0 -60 -45 -60 -71 0 -16 -7 -32
-17 -37 -14 -8 -15 -15 -5 -55 15 -57 15 -57 -2 -57 -7 0 -20 -7 -27 -17 -13
-14 -12 -15 6 -7 11 5 49 8 85 7 36 -2 72 -3 80 -2 80 2 110 5 117 12 4 5 -4
6 -20 2 -31 -8 -32 -4 -15 62 10 40 9 47 -5 55 -10 5 -17 20 -17 33 0 34 -10
55 -26 55 -8 0 -14 5 -14 10 0 6 -7 10 -15 10 -9 0 -15 9 -15 25 0 18 -5 25
-20 25 -15 0 -20 -7 -20 -25z m30 1 c0 -8 -4 -18 -10 -21 -5 -3 -10 3 -10 14
0 12 5 21 10 21 6 0 10 -6 10 -14z m13 -43 c-13 -2 -33 -2 -45 0 -13 2 -3 4
22 4 25 0 35 -2 23 -4z m10 -20 c-18 -2 -48 -2 -65 0 -18 2 -4 4 32 4 36 0 50
-2 33 -4z m-68 -23 c-3 -5 -15 -15 -26 -20 -16 -9 -19 -7 -19 10 0 15 7 20 26
20 14 0 22 -4 19 -10z m115 -10 c0 -17 -3 -19 -19 -10 -32 16 -34 30 -7 30 19
0 26 -5 26 -20z m-90 -75 c0 -53 -4 -75 -12 -75 -7 0 -23 -3 -34 -6 -19 -5
-24 1 -39 46 -9 28 -14 54 -11 57 10 11 81 52 89 53 4 0 7 -34 7 -75z m77 49
c36 -22 43 -31 39 -48 -4 -12 -9 -33 -12 -48 -4 -16 -10 -28 -14 -28 -4 0 -22
-3 -39 -6 l-31 -6 0 81 c0 44 3 81 6 81 3 0 26 -12 51 -26z"/>
<path d="M84 135 c-10 -8 -14 -15 -8 -15 6 0 17 7 24 15 16 19 9 19 -16 0z"/>
<path d="M204 135 c11 -8 24 -15 30 -15 5 0 1 7 -10 15 -10 8 -23 14 -29 14
-5 0 -1 -6 9 -14z"/>
</g>
</svg>
